<svg width="706" height="700" viewBox="0 0 706 700" fill="none" xmlns="http://www.w3.org/2000/svg">
<path d="M353 -3C157.793 -3 0 154.793 0 350C0 545.207 157.793 703 353 703C548.207 703 706 545.207 706 350C706 154.793 546.581 -3 353 -3ZM302.571 499.659L276.544 576.115C178.94 543.581 113.871 450.857 113.871 346.747C113.871 242.636 178.94 151.539 278.171 117.378L304.198 193.834C239.129 214.982 196.834 276.797 196.834 345.12C195.207 416.696 237.502 478.512 302.571 499.659ZM424.576 577.742L400.175 499.659C466.871 478.512 510.793 416.696 510.793 346.747C510.793 276.797 466.871 216.608 401.802 195.461L427.829 117.378C527.06 149.912 593.756 242.636 593.756 346.747C592.129 454.111 523.806 546.834 424.576 577.742Z" fill="#242A35" fill-opacity="0.3"/>
</svg>
